<?xml version="1.0" encoding="UTF-8"?>
<svg xmlns="http://www.w3.org/2000/svg" viewBox="0 0 106.5 106.5">
  <style>
    * {
    fill: #252525;
    }
    @media (prefers-color-scheme: dark) {
    * { fill: #F8F8F8; }
    }
  </style>
  <g>
    <path d="m26.13,39.79c-1.39,0-2.61-.35-3.68-1.04-1.07-.69-1.9-1.67-2.51-2.93-.61-1.26-.91-2.77-.91-4.54s.3-3.26.91-4.54c.61-1.28,1.45-2.26,2.53-2.94,1.08-.68,2.3-1.02,3.66-1.02,1.28,0,2.43.3,3.44.9,1.01.6,1.68,1.39,2,2.37h-.32l.35-2.88h5.5c-.09.73-.15,1.46-.19,2.21-.04.75-.06,1.48-.06,2.21v11.84h-5.66l-.03-2.75h.35c-.32.94-.99,1.7-2,2.27s-2.14.86-3.38.86Zm1.86-4.26c.96,0,1.74-.34,2.34-1.01s.9-1.75.9-3.25-.3-2.58-.9-3.25-1.38-1.01-2.34-1.01-1.74.34-2.34,1.01c-.6.67-.9,1.75-.9,3.25s.29,2.58.88,3.25c.59.67,1.37,1.01,2.35,1.01Z"/>
    <path d="m 40.37,39.79v-24.55h5.7v 24.55h -5.7Z"/>
    <path d="m57.9,39.79c-2.3,0-4.04-.55-5.2-1.66-1.16-1.11-1.74-2.78-1.74-5.02v-5.76h-3.04v-4.19h3.04v-3.87l5.7-1.34v5.22h4v4.19h-4v5.57c0,.9.21,1.5.62,1.82.42.32.92.48,1.52.48.38,0,.7-.02.96-.06.26-.04.54-.12.86-.22v4.35c-.45.19-.91.32-1.39.4-.48.07-.92.11-1.33.11Z"/>
  </g>
  <g>
    <path d="m25.97,92.16c-1.49,0-2.85-.16-4.08-.48-1.23-.32-2.28-.76-3.15-1.31l1.38-3.68c.83.47,1.77.85,2.82,1.15,1.04.3,2.08.45,3.1.45.83,0,1.42-.12,1.78-.37.35-.25.53-.57.53-.98,0-.34-.11-.6-.34-.78-.22-.18-.57-.3-1.04-.37l-3.46-.61c-1.37-.26-2.43-.77-3.18-1.54s-1.14-1.76-1.14-2.98c0-1.11.3-2.07.9-2.9.6-.82,1.45-1.47,2.56-1.94,1.11-.47,2.41-.7,3.9-.7,1.24,0,2.42.14,3.55.43,1.13.29,2.1.74,2.91,1.36l-1.44,3.58c-.66-.47-1.44-.84-2.32-1.12-.89-.28-1.71-.42-2.48-.42-.92,0-1.57.13-1.95.38-.38.26-.58.59-.58.99,0,.3.11.55.34.75.22.2.56.36,1.01.46l3.46.58c1.39.23,2.46.72,3.23,1.46.77.74,1.15,1.73,1.15,2.99,0,1.17-.31,2.17-.93,2.99-.62.82-1.49,1.46-2.61,1.9-1.12.45-2.43.67-3.92.67Z"/>
    <path d="m35.95,91.78v-23.55h5.7v10.14h-.48c.53-1.02,1.29-1.82,2.27-2.38.98-.56,2.1-.85,3.36-.85,1.9,0,3.32.57,4.26,1.71.94,1.14,1.41,2.86,1.41,5.17v9.76h-5.7v-9.5c0-.96-.18-1.66-.53-2.1-.35-.44-.89-.66-1.62-.66-.88,0-1.59.29-2.14.86-.56.58-.83,1.33-.83,2.27v9.12h-5.7Z"/>
    <path d="m55.76,73.22v-5.12h5.95v5.12h-5.95Zm.13,18.56v-16.26h5.7v16.26h-5.7Z"/>
    <path d="m66.48,91.78v-12.06h-3.04v-4.19h4.67l-1.63,1.47v-2.24c0-2.22.59-3.88,1.76-4.99,1.17-1.11,2.94-1.66,5.31-1.66.53,0,1.1.03,1.71.1s1.14.2,1.58.42v4.32c-.3-.11-.64-.19-1.02-.24s-.76-.08-1.12-.08c-.41,0-.81.07-1.22.21-.41.14-.74.38-.99.72-.26.34-.38.81-.38,1.41v1.44l-.77-.86h4.74v4.19h-3.9v12.06h-5.7Z"/>
    <path d="m85.33,92.16c-2.3,0-4.04-.55-5.2-1.66-1.16-1.11-1.74-2.78-1.74-5.02v-5.76h-3.04v-4.19h3.04v-3.87l5.7-1.34v5.22h4v4.19h-4v5.57c0,.9.21,1.5.62,1.82.42.32.92.48,1.52.48.38,0,.7-.02.96-.06.26-.04.54-.12.86-.22v4.35c-.45.19-.91.32-1.39.4-.48.07-.92.11-1.33.11Z"/>
  </g>
  <rect width="2" height="106.5"/>
  <rect width="79.08" height="2"/>
  <rect y="104.5" width="106.5" height="2"/>
  <rect x="104.5" y="53.25" width="2" height="53.25"/>
  <rect y="52.25" width="106.5" height="2"/>
  <rect x="77.08" width="2" height="53.25"/>
</svg>
